<?xml version="1.0" encoding="utf-8"?>
<!-- Generator: Adobe Illustrator 23.0.6, SVG Export Plug-In . SVG Version: 6.00 Build 0)  -->
<svg version="1.1" id="Laag_1" xmlns="http://www.w3.org/2000/svg" xmlns:xlink="http://www.w3.org/1999/xlink" x="0px" y="0px"
	 viewBox="0 0 218.9 98.5" style="enable-background:new 0 0 218.9 98.5;" xml:space="preserve">
<style type="text/css">
	.st0{fill:none;}
	.st1{fill:#932281;}
</style>
<rect class="st0" width="218.9" height="98.5"/>
<title>PTI-paars-zonderpayoff</title>
<path class="st1" d="M81.1,82.4h-0.6c-1.3,0-2.3-1-2.3-2.3c0-1.3,1-2.3,2.3-2.3h0.6c1.6,0,2.9-1.3,2.9-2.9V27c0-1.6-1.3-2.9-2.9-2.9
	H33.5c-1.6,0-2.9,1.3-2.9,2.9v47.9c0,1.4,1,2.6,2.4,2.9l0,0c0.1,0,0.3,0,0.4,0H34c1.3,0,2.3,1,2.3,2.3c0,1.3-1,2.3-2.3,2.3h-0.6
	c-0.5,0-0.9,0-1.4-0.1l0,0c-3.5-0.7-6-3.8-6-7.4V27c0-4.2,3.4-7.5,7.5-7.5h47.6c4.2,0,7.5,3.4,7.5,7.5v47.9
	C88.7,79,85.3,82.4,81.1,82.4C81.1,82.4,81.1,82.4,81.1,82.4z"/>
<path class="st1" d="M39.5,79.3v-2.4c0-0.5,0.4-0.8,0.9-0.9h4.5c0.5,0,0.8,0.4,0.9,0.9v4.5c0,0.5-0.4,0.8-0.9,0.9h-4.5
	c-0.5,0-0.8-0.4-0.9-0.9V79.3"/>
<path class="st1" d="M47.7,76h4.5c0.5,0,0.8,0.4,0.8,0.8v4.5c0,0.5-0.4,0.8-0.8,0.8h-4.5c-0.5,0-0.8-0.4-0.8-0.8v-4.5
	C46.8,76.4,47.2,76,47.7,76z"/>
<path class="st1" d="M55,76h4.5c0.5,0,0.8,0.4,0.8,0.8v4.5c0,0.5-0.4,0.8-0.8,0.8H55c-0.5,0-0.9-0.4-0.9-0.8v-4.5
	C54.2,76.4,54.6,76,55,76z"/>
<path class="st1" d="M62.4,76h4.5c0.5,0,0.8,0.4,0.8,0.8v4.5c0,0.5-0.4,0.8-0.8,0.8h-4.5c-0.5,0-0.8-0.4-0.8-0.8v-4.5
	C61.6,76.4,61.9,76,62.4,76z"/>
<path class="st1" d="M75.2,79.4v2c0,0.5-0.4,0.8-0.9,0.9h-4.5c-0.5,0-0.8-0.4-0.9-0.9v-4.5c0-0.5,0.4-0.8,0.9-0.9h4.5
	c0.5,0,0.8,0.4,0.9,0.9V79.4"/>
<path class="st1" d="M39.5,69.4v-2.4c0-0.5,0.4-0.9,0.9-0.9l0,0h4.5c0.5,0,0.9,0.4,0.9,0.9l0,0v4.5c0,0.5-0.4,0.9-0.9,0.9l0,0h-4.5
	c-0.5,0-0.9-0.4-0.9-0.9l0,0V69.4"/>
<path class="st1" d="M68.2,57.3v-2.4c0-0.5,0.4-0.8,0.9-0.9h4.5c0.5,0,0.8,0.4,0.9,0.9v4.5c0,0.5-0.4,0.8-0.9,0.9h-4.5
	c-0.5,0-0.8-0.4-0.9-0.9V57.3"/>
<path class="st1" d="M47.7,63.1h4.5c0.5,0,0.8,0.4,0.8,0.8v4.5c0,0.5-0.4,0.8-0.8,0.8h-4.5c-0.5,0-0.8-0.4-0.8-0.8V64
	C46.8,63.5,47.2,63.1,47.7,63.1z"/>
<path class="st1" d="M55,66.1h4.5c0.5,0,0.8,0.4,0.8,0.8v4.5c0,0.5-0.4,0.8-0.8,0.8H55c-0.5,0-0.9-0.4-0.9-0.8v-4.5
	C54.2,66.5,54.6,66.1,55,66.1z"/>
<path class="st1" d="M57.1,54.5h4.5c0.5,0,0.8,0.4,0.8,0.8v4.5c0,0.5-0.4,0.8-0.8,0.8h-4.5c-0.5,0-0.9-0.4-0.9-0.8v-4.5
	C56.3,54.9,56.6,54.5,57.1,54.5z"/>
<path class="st1" d="M62.4,63h4.5c0.5,0,0.8,0.4,0.8,0.8v4.5c0,0.5-0.4,0.8-0.8,0.8h-4.5c-0.5,0-0.8-0.4-0.8-0.8v-4.5
	C61.6,63.3,61.9,63,62.4,63z"/>
<path class="st1" d="M75.2,69.4v2c0,0.5-0.4,0.9-0.9,0.9l0,0h-4.5c-0.5,0-0.9-0.4-0.9-0.9l0,0v-4.5c0-0.5,0.4-0.9,0.9-0.9l0,0h4.5
	c0.5,0,0.9,0.4,0.9,0.9l0,0V69.4"/>
<path class="st1" d="M44.1,41.1h4.5c0.5,0,0.8,0.4,0.8,0.8v4.5c0,0.5-0.4,0.9-0.8,0.9h-4.5c-0.5,0-0.9-0.4-0.9-0.9v-4.5
	C43.2,41.5,43.6,41.1,44.1,41.1z"/>
<path class="st1" d="M54.9,45.1h4.5c0.5,0,0.8,0.4,0.8,0.8v4.5c0,0.5-0.4,0.8-0.8,0.8h-4.5c-0.5,0-0.9-0.4-0.9-0.8V46
	C54.1,45.5,54.5,45.1,54.9,45.1z"/>
<path class="st1" d="M62.3,42h4.5c0.5,0,0.8,0.4,0.8,0.9v4.5c0,0.5-0.4,0.9-0.8,0.9h-4.5c-0.5,0-0.8-0.4-0.8-0.9v-4.5
	C61.4,42.4,61.8,42,62.3,42z"/>
<path class="st1" d="M74,39.1v2c0,0.5-0.4,0.8-0.9,0.9h-4.5c-0.5,0-0.8-0.4-0.9-0.9v-4.5c0-0.5,0.4-0.8,0.9-0.9h4.5
	c0.5,0,0.8,0.4,0.9,0.9V39.1"/>
<path class="st1" d="M43.6,51.8h4.5c0.5,0,0.8,0.4,0.8,0.8v4.5c0,0.5-0.4,0.8-0.8,0.8h-4.5c-0.5,0-0.9-0.4-0.9-0.8v-4.5
	C42.7,52.1,43.1,51.8,43.6,51.8z"/>
<path class="st1" d="M141,34.8c2.6,1.5,4.8,3.7,6.2,6.4c3.1,6,3.1,13.2,0,19.2c-1.5,2.7-3.6,4.9-6.2,6.4c-2.7,1.5-5.7,2.3-8.7,2.2
	c-4.1,0-7.4-1.2-9.8-3.7V81h-12.4V33.2h11.8v3.5c2.3-2.7,5.8-4.1,10.4-4.1C135.4,32.6,138.4,33.3,141,34.8z M135,56.9
	c2.8-3.6,2.8-8.7,0-12.3c-2.9-2.9-7.6-3-10.5-0.1c0,0-0.1,0.1-0.1,0.1c-2.8,3.6-2.8,8.7,0,12.3c2.9,2.9,7.6,3,10.5,0.1
	C134.9,57,135,57,135,56.9z"/>
<path class="st1" d="M177.8,68.4h-9.4c-4.6,0-8.1-1.1-10.6-3.4c-2.5-2.2-3.7-5.6-3.7-10V43.5h-4.2c0,0-1-7.8-10.6-10.9
	c-4.2,0,14.8,0.1,14.8,0.1V20.4h12.4v12.2l11.4,0.1v10.8h-11.3V55c-0.1,1.1,0.3,2.1,1,2.9c0.7,0.7,1.7,1.1,2.7,1.1c1.4,0,6,0,7.6,0
	L177.8,68.4z"/>
<path class="st1" d="M179.9,27.4c-2.6-2.3-2.8-6.3-0.4-8.9c0.1-0.2,0.3-0.3,0.4-0.4c1.5-1.3,3.5-2,5.5-1.9c2-0.1,3.9,0.5,5.5,1.8
	c1.4,1.1,2.1,2.8,2.1,4.6c0,1.8-0.7,3.6-2.1,4.8C187.6,29.9,183.1,29.9,179.9,27.4L179.9,27.4z M179.2,32.6l12.4-0.1v35.9h-12.4
	L179.2,32.6z"/>
</svg>
