<svg version="1.1" id="Laag_1" xmlns="http://www.w3.org/2000/svg" x="0" y="0" viewBox="0 0 426.9 73.9" xml:space="preserve"><style>.st0{fill:#931F80}</style><g id="Group_557_00000088813310525592944850000003653891084135422647_"><g id="Group_577_00000134216633396738230340000007976084894144441532_"><g id="Group_557-2_00000070094902934623500930000014723220545148543919_"><path id="Path_105_00000146463921923537867210000016227794613480872621_" class="st0" d="M54.2 62.4h-.5c-1 0-1.8-.8-1.8-1.8s.8-1.8 1.8-1.8h.5c1.3 0 2.3-1 2.3-2.3v-38c0-1.3-1-2.3-2.3-2.3H16.3c-1.3 0-2.3 1-2.3 2.3v38c0 1.1.8 2.1 1.9 2.3h.8c1 0 1.8.8 1.8 1.8s-.8 1.8-1.8 1.8h-.5c-.4 0-.7 0-1.1-.1-2.8-.6-4.8-3-4.8-5.9v-38c0-3.3 2.7-6 6-6h37.8c3.3 0 6 2.7 6 6v38c0 3.3-2.6 6-5.9 6z"/></g><g id="Group_576_00000116932563562837213550000012272228117387522710_" transform="translate(10.713 12.995)"><g id="Group_575_00000143589457919677690490000010878739640897045155_"><g id="Group_558_00000021082213055025780930000010944439554011969413_" transform="translate(0 31.993)"><path id="Path_106_00000039100851124197922850000016899471695369198009_" class="st0" d="M10.3 15v-2c0-.4.3-.7.7-.7h3.6c.4 0 .7.3.7.7v3.6c0 .4-.3.7-.7.7H11c-.4 0-.7-.3-.7-.7V15"/></g><g id="Group_559_00000140730069261818064490000001764792413127578260_" transform="translate(5.853 31.993)"><path id="Rectangle_48_00000075863140286134298380000003743871771065731207_" class="st0" d="M11.2 12.3h3.2c.5 0 .9.4.9.9v3.2c0 .5-.4.9-.9.9h-3.2c-.5 0-.9-.4-.9-.9v-3.2c0-.5.4-.9.9-.9z"/></g><g id="Group_560_00000128453974807810099250000013410574151621114496_" transform="translate(11.707 31.993)"><path id="Rectangle_49_00000050622091718242109130000009339104045325778309_" class="st0" d="M11.2 12.3h3.2c.5 0 .8.4.8.9v3.2c0 .5-.4.9-.8.9h-3.2c-.5 0-.8-.4-.8-.9v-3.2c-.1-.5.3-.9.8-.9z"/></g><g id="Group_561_00000081637173182551088720000003569117976750849188_" transform="translate(17.56 31.993)"><path id="Rectangle_50_00000057112716750167984970000013069426085404034699_" class="st0" d="M11.2 12.3h3.2c.5 0 .9.4.9.9v3.2c0 .5-.4.9-.9.9h-3.2c-.5 0-.9-.4-.9-.9v-3.2c0-.5.4-.9.9-.9z"/></g><g id="Group_562_00000106838417882360867480000011398643541957654678_" transform="translate(23.445 31.993)"><path id="Path_107_00000000193645971878662640000012776198681541906582_" class="st0" d="M15.3 15v1.6c0 .4-.3.7-.7.7H11c-.4 0-.7-.3-.7-.7V13c0-.4.3-.7.7-.7h3.6c.4 0 .7.3.7.7v2"/></g><g id="Group_563_00000020398713316321286790000001205942170008781718_" transform="translate(0 24.072)"><path id="Path_108_00000152963707401983991340000005088651948403254161_" class="st0" d="M10.3 15v-2c0-.4.3-.7.7-.7h3.6c.4 0 .7.3.7.7v3.6c0 .4-.3.7-.7.7H11c-.4 0-.7-.3-.7-.7V15"/></g><g id="Group_564_00000008128489915293715460000012768986239653530002_" transform="translate(22.878 14.471)"><path id="Path_109_00000077311352259348452600000003206528330182531236_" class="st0" d="M10.3 15v-2c0-.4.3-.7.7-.7h3.6c.4 0 .7.3.7.7v3.6c0 .4-.3.7-.7.7H11c-.4 0-.7-.3-.7-.7V15"/></g><g id="Group_565_00000052086532080419605800000002432582003370885535_" transform="translate(5.853 21.74)"><path id="Rectangle_51_00000102530136668337742100000015949251374503865771_" class="st0" d="M11.2 12.3h3.2c.5 0 .9.4.9.9v3.2c0 .5-.4.9-.9.9h-3.2c-.5 0-.9-.4-.9-.9v-3.2c0-.5.4-.9.9-.9z"/></g><g id="Group_566_00000047758341800009466670000007225966475566123434_" transform="translate(11.707 24.073)"><path id="Rectangle_52_00000148619976926331402070000000513604406917933494_" class="st0" d="M11.2 12.3h3.2c.5 0 .8.4.8.9v3.2c0 .5-.4.9-.8.9h-3.2c-.5 0-.8-.4-.8-.9v-3.2c-.1-.5.3-.9.8-.9z"/></g><g id="Group_567_00000174595156186567678450000011901425294326931901_" transform="translate(13.359 14.902)"><path id="Rectangle_53_00000168103896203712854790000015274446201820173989_" class="st0" d="M11.2 12.3h3.2c.5 0 .9.4.9.8v3.2c0 .5-.4.9-.9.9h-3.2c-.5 0-.9-.4-.9-.9v-3.2c0-.4.4-.8.9-.8z"/></g><g id="Group_568_00000031202483553050527550000007879092369983886468_" transform="translate(17.56 21.595)"><path id="Rectangle_54_00000098217540631065528360000012239804225787314832_" class="st0" d="M11.2 12.3h3.2c.5 0 .9.4.9.8v3.2c0 .5-.4.9-.9.9h-3.2c-.5 0-.9-.4-.9-.9v-3.2c0-.4.4-.8.9-.8z"/></g><g id="Group_569_00000018232273905749144880000008347765156778359224_" transform="translate(23.445 24.072)"><path id="Path_110_00000147180915098133747010000004782775805912986266_" class="st0" d="M15.3 15v1.6c0 .4-.3.7-.7.7H11c-.4 0-.7-.3-.7-.7V13c0-.4.3-.7.7-.7h3.6c.4 0 .7.3.7.7v2"/></g><g id="Group_570_00000020367431801834359470000017884945881373407907_" transform="translate(3.01 4.214)"><path id="Rectangle_55_00000024689657602298201370000006614678969470045093_" class="st0" d="M11.2 12.3h3.2c.5 0 .8.4.8.8v3.2c0 .5-.4.9-.8.9h-3.2c-.5 0-.8-.4-.8-.9v-3.2c-.1-.4.3-.8.8-.8z"/></g><g id="Group_571_00000136406928276982700590000001902407949297449648_" transform="translate(11.621 7.407)"><path id="Rectangle_56_00000085972531230920745200000007240943422177778348_" class="st0" d="M11.2 12.3h3.2c.5 0 .9.4.9.9v3.2c0 .5-.4.9-.9.9h-3.2c-.5 0-.9-.4-.9-.9v-3.2c0-.5.4-.9.9-.9z"/></g><g id="Group_572_00000169556049976162086120000010477713372690697146_" transform="translate(17.474 4.929)"><path id="Rectangle_57_00000152979374026311784910000002635740527914976138_" class="st0" d="M11.2 12.3h3.2c.5 0 .8.4.8.9v3.2c0 .5-.4.9-.8.9h-3.2c-.5 0-.8-.4-.8-.9v-3.2c-.1-.5.3-.9.8-.9z"/></g><g id="Group_573_00000107556028458011110680000007467860565901383852_" transform="translate(22.489)"><path id="Path_111_00000124872521667443764200000003295203836309713811_" class="st0" d="M15.3 15v1.6c0 .4-.3.7-.7.7H11c-.4 0-.7-.3-.7-.7V13c0-.4.3-.7.7-.7h3.6c.4 0 .7.3.7.7v2"/></g><g id="Group_574_00000005267805878687015910000014307130658888818567_" transform="translate(2.594 12.702)"><path id="Rectangle_58_00000083810522323505787100000003806686982898487695_" class="st0" d="M11.2 12.3h3.2c.5 0 .8.4.8.9v3.2c0 .5-.4.9-.8.9h-3.2c-.5 0-.9-.4-.9-.9v-3.2c0-.5.4-.9.9-.9z"/></g></g></g></g></g><path class="st0" d="M104.8 35.9c0 5.9-4.3 9.5-11.3 9.5h-6V53h-4.9V26.4h10.9c7 0 11.3 3.6 11.3 9.5zm-4.9 0c0-3.3-2.2-5.3-6.6-5.3h-5.8v10.6h5.8c4.3 0 6.6-2 6.6-5.3zM109.8 26.4h4.9v22.4h13.9V53h-18.8V26.4zM150 46.9h-13.3l-2.6 6.2H129l12-26.6h4.9l12 26.6h-5.2l-2.7-6.2zm-1.7-3.9l-5-11.6-5 11.6h10zM184.8 26.4V53h-4.1L166 35v18h-4.9V26.4h4.1l14.7 18v-18h4.9zM215.6 26.4V53h-4.1l-14.7-18v18H192V26.4h4.1l14.7 18v-18h4.8zM222.8 26.4h4.9V53h-4.9V26.4zM258.5 26.4V53h-4.1l-14.7-18v18h-4.9V26.4h4.1l14.7 18v-18h4.9zM283.8 39.4h4.7V50c-2.8 2.2-6.6 3.4-10.4 3.4-8.2 0-14.3-5.7-14.3-13.7 0-7.9 6.1-13.7 14.4-13.7 4.4 0 8.2 1.5 10.7 4.3l-3.1 3c-2.1-2.1-4.5-3-7.3-3-5.7 0-9.7 3.8-9.7 9.3 0 5.4 4 9.3 9.6 9.3 1.9 0 3.8-.4 5.5-1.4v-8.1zM303.2 50.2l1.7-3.8c2.1 1.7 5.5 2.9 8.8 2.9 4.1 0 5.9-1.5 5.9-3.5 0-5.7-15.8-2-15.8-11.9 0-4.3 3.4-7.9 10.7-7.9 3.2 0 6.5.8 8.9 2.4l-1.6 3.8c-2.4-1.4-5-2.1-7.3-2.1-4.1 0-5.8 1.6-5.8 3.6 0 5.7 15.8 2 15.8 11.7 0 4.3-3.5 7.9-10.8 7.9-4.1.1-8.3-1.2-10.5-3.1zM329.2 41.4v-15h4.9v14.8c0 5.5 2.5 7.8 6.8 7.8s6.7-2.4 6.7-7.8V26.4h4.9v15c0 7.8-4.4 12-11.6 12-7.4 0-11.7-4.2-11.7-12zM359.4 26.4h4.9V53h-4.9V26.4zM376.9 30.6h-8.8v-4.2h22.6v4.2h-8.8V53H377V30.6zM414.3 48.9V53h-19.9V26.4h19.4v4.1h-14.5v6.9h12.8v4.1h-12.8v7.3h15z"/></svg>